<svg xmlns="http://www.w3.org/2000/svg" xmlns:xlink="http://www.w3.org/1999/xlink" contentStyleType="text/css" height="2050px" preserveAspectRatio="none" style="width:2493px;height:2050px;background:#FFFFFF;" version="1.1" viewBox="0 0 2493 2050" width="2493.75px" zoomAndPan="magnify"><defs><filter height="300%" id="f10xj53dcjucch" width="300%" x="-1" y="-1"><feGaussianBlur result="blurOut" stdDeviation="4.166666666666667"/><feColorMatrix in="blurOut" result="blurOut2" type="matrix" values="0 0 0 0 0 0 0 0 0 0 0 0 0 0 0 0 0 0 .4 0"/><feOffset dx="8.333333333333334" dy="8.333333333333334" in="blurOut2" result="blurOut3"/><feBlend in="SourceGraphic" in2="blurOut3" mode="normal"/></filter></defs><g><!--entity KH--><g id="elem_KH"><rect fill="#F8FAFC" filter="url(#f10xj53dcjucch)" height="74.9186" rx="5.2083" ry="5.2083" style="stroke:#334155;stroke-width:3.125;" width="210.5265" x="794.7917" y="552.0833"/><text fill="#000000" font-family="Segoe UI" font-size="25" font-weight="bold" lengthAdjust="spacing" textLength="168.8599" x="815.625" y="599.8942">KH&#193;CH H&#192;NG</text></g><!--entity QL--><g id="elem_QL"><rect fill="#F8FAFC" filter="url(#f10xj53dcjucch)" height="74.9186" rx="5.2083" ry="5.2083" style="stroke:#334155;stroke-width:3.125;" width="263.3708" x="1527.0833" y="14.5833"/><text fill="#000000" font-family="Segoe UI" font-size="25" font-weight="bold" lengthAdjust="spacing" textLength="221.7041" x="1547.9167" y="62.3942">QU&#7842;N L&#221; / ADMIN</text></g><g id="elem_P31"><ellipse cx="564.2178" cy="1954.2432" fill="#FEF08A" filter="url(#f10xj53dcjucch)" rx="195.4678" ry="70.9099" style="stroke:#CA8A04;stroke-width:3.125;"/><text fill="#000000" font-family="Segoe UI" font-size="22.9167" font-weight="bold" lengthAdjust="spacing" textLength="32.5734" x="547.9311" y="1929.0845">3.1</text><text fill="#000000" font-family="Segoe UI" font-size="22.9167" font-weight="bold" lengthAdjust="spacing" textLength="242.5944" x="442.9206" y="1959.5655">Tra c&#7913;u &amp; Xem chi ti&#7871;t</text><text fill="#000000" font-family="Segoe UI" font-size="22.9167" font-weight="bold" lengthAdjust="spacing" textLength="225.9328" x="451.2514" y="1990.0464">S&#7843;n ph&#7849;m Th&#7901;i trang</text></g><g id="elem_P32"><ellipse cx="1439.7235" cy="862.5765" fill="#FEF08A" filter="url(#f10xj53dcjucch)" rx="168.8902" ry="70.9099" style="stroke:#CA8A04;stroke-width:3.125;"/><text fill="#000000" font-family="Segoe UI" font-size="22.9167" font-weight="bold" lengthAdjust="spacing" textLength="32.5734" x="1423.4368" y="837.4178">3.2</text><text fill="#000000" font-family="Segoe UI" font-size="22.9167" font-weight="bold" lengthAdjust="spacing" textLength="203.2176" x="1338.1147" y="867.8988">Kh&#7903;i t&#7841;o &#272;&#417;n h&#224;ng</text><text fill="#000000" font-family="Segoe UI" font-size="22.9167" font-weight="bold" lengthAdjust="spacing" textLength="205.0079" x="1337.2195" y="898.3798">&amp; Chi ti&#7871;t gi&#7887; h&#224;ng</text></g><g id="elem_P33"><ellipse cx="927.3331" cy="1408.4099" fill="#FEF08A" filter="url(#f10xj53dcjucch)" rx="180.4581" ry="70.9099" style="stroke:#CA8A04;stroke-width:3.125;"/><text fill="#000000" font-family="Segoe UI" font-size="22.9167" font-weight="bold" lengthAdjust="spacing" textLength="32.5734" x="911.0463" y="1383.2512">3.3</text><text fill="#000000" font-family="Segoe UI" font-size="22.9167" font-weight="bold" lengthAdjust="spacing" textLength="186.0301" x="834.318" y="1413.7321">Ki&#7875;m tra T&#7891;n kho</text><text fill="#000000" font-family="Segoe UI" font-size="22.9167" font-weight="bold" lengthAdjust="spacing" textLength="221.3674" x="816.6494" y="1444.2131">&amp; Kh&#7845;u tr&#7915; s&#7889; l&#432;&#7907;ng</text></g><g id="elem_P34"><ellipse cx="1658.242" cy="316.7432" fill="#FEF08A" filter="url(#f10xj53dcjucch)" rx="173.867" ry="70.9099" style="stroke:#CA8A04;stroke-width:3.125;"/><text fill="#000000" font-family="Segoe UI" font-size="22.9167" font-weight="bold" lengthAdjust="spacing" textLength="32.5734" x="1641.9553" y="291.5845">3.4</text><text fill="#000000" font-family="Segoe UI" font-size="22.9167" font-weight="bold" lengthAdjust="spacing" textLength="202.2217" x="1557.1312" y="322.0655">Duy&#7879;t &#272;&#417;n h&#224;ng &amp;</text><text fill="#000000" font-family="Segoe UI" font-size="22.9167" font-weight="bold" lengthAdjust="spacing" textLength="212.0463" x="1552.2189" y="352.5464">C&#7853;p nh&#7853;t Giao h&#224;ng</text></g><!--entity D2--><g id="elem_D2"><path d="M1481.25,564.5833 C1481.25,543.75 1597.6217,543.75 1597.6217,543.75 C1597.6217,543.75 1713.9933,543.75 1713.9933,564.5833 L1713.9933,613.8143 C1713.9933,634.6476 1597.6217,634.6476 1597.6217,634.6476 C1597.6217,634.6476 1481.25,634.6476 1481.25,613.8143 L1481.25,564.5833 " fill="#ECFDF5" filter="url(#f10xj53dcjucch)" style="stroke:#059669;stroke-width:3.125;"/><path d="M1481.25,564.5833 C1481.25,585.4167 1597.6217,585.4167 1597.6217,585.4167 C1597.6217,585.4167 1713.9933,585.4167 1713.9933,564.5833 " fill="none" style="stroke:#059669;stroke-width:3.125;"/><text fill="#000000" font-family="Segoe UI" font-size="22.9167" font-weight="bold" lengthAdjust="spacing" textLength="191.0767" x="1502.0833" y="618.4794">D2: KHACHHANG</text></g><!--entity D3--><g id="elem_D3"><path d="M675,1656.25 C675,1635.4167 927.1764,1635.4167 927.1764,1635.4167 C927.1764,1635.4167 1179.3528,1635.4167 1179.3528,1656.25 L1179.3528,1705.481 C1179.3528,1726.3143 927.1764,1726.3143 927.1764,1726.3143 C927.1764,1726.3143 675,1726.3143 675,1705.481 L675,1656.25 " fill="#ECFDF5" filter="url(#f10xj53dcjucch)" style="stroke:#059669;stroke-width:3.125;"/><path d="M675,1656.25 C675,1677.0833 927.1764,1677.0833 927.1764,1677.0833 C927.1764,1677.0833 1179.3528,1677.0833 1179.3528,1656.25 " fill="none" style="stroke:#059669;stroke-width:3.125;"/><text fill="#000000" font-family="Segoe UI" font-size="22.9167" font-weight="bold" lengthAdjust="spacing" textLength="462.6862" x="695.8333" y="1710.1461">D3: SANPHAM, DANHMUC &amp; SOLUONGSP</text></g><!--entity D41--><g id="elem_D41"><path d="M2060.4167,1110.4167 C2060.4167,1089.5833 2172.4747,1089.5833 2172.4747,1089.5833 C2172.4747,1089.5833 2284.5327,1089.5833 2284.5327,1110.4167 L2284.5327,1159.6476 C2284.5327,1180.481 2172.4747,1180.481 2172.4747,1180.481 C2172.4747,1180.481 2060.4167,1180.481 2060.4167,1159.6476 L2060.4167,1110.4167 " fill="#ECFDF5" filter="url(#f10xj53dcjucch)" style="stroke:#059669;stroke-width:3.125;"/><path d="M2060.4167,1110.4167 C2060.4167,1131.25 2172.4747,1131.25 2172.4747,1131.25 C2172.4747,1131.25 2284.5327,1131.25 2284.5327,1110.4167 " fill="none" style="stroke:#059669;stroke-width:3.125;"/><text fill="#000000" font-family="Segoe UI" font-size="22.9167" font-weight="bold" lengthAdjust="spacing" textLength="182.4493" x="2081.25" y="1164.3127">D4.1: DONHANG</text></g><!--entity D42--><g id="elem_D42"><path d="M1069.7917,1110.4167 C1069.7917,1089.5833 1224.5667,1089.5833 1224.5667,1089.5833 C1224.5667,1089.5833 1379.3416,1089.5833 1379.3416,1110.4167 L1379.3416,1159.6476 C1379.3416,1180.481 1224.5667,1180.481 1224.5667,1180.481 C1224.5667,1180.481 1069.7917,1180.481 1069.7917,1159.6476 L1069.7917,1110.4167 " fill="#ECFDF5" filter="url(#f10xj53dcjucch)" style="stroke:#059669;stroke-width:3.125;"/><path d="M1069.7917,1110.4167 C1069.7917,1131.25 1224.5667,1131.25 1224.5667,1131.25 C1224.5667,1131.25 1379.3416,1131.25 1379.3416,1110.4167 " fill="none" style="stroke:#059669;stroke-width:3.125;"/><text fill="#000000" font-family="Segoe UI" font-size="22.9167" font-weight="bold" lengthAdjust="spacing" textLength="267.8833" x="1090.625" y="1164.3127">D4.2: CHITIETDONHANG</text></g><!--link KH to P31--><g id="link_KH_P31"><path d="M794.7083,601.1458 C559.625,625.2292 12.5,698.625 12.5,860.4167 C12.5,860.4167 12.5,860.4167 12.5,1683.3333 C12.5,1848.5625 202.5406,1910.332 362.2281,1934.8528 " fill="none" id="KH-to-P31" style="stroke:#1E293B;stroke-width:2.0833333333333335;"/><polygon fill="#1E293B" points="374.5833,1936.75,357.3154,1925.6674,364.2873,1935.169,354.7858,1942.141,374.5833,1936.75" style="stroke:#1E293B;stroke-width:2.0833333333333335;"/><text fill="#0F172A" font-family="Segoe UI" font-size="20.8333" lengthAdjust="spacing" textLength="466.5934" x="14.5833" y="1268.3146">T&#236;m ki&#7871;m t&#7915; kh&#243;a / Ch&#7885;n danh m&#7909;c / L&#7885;c m&#224;u, size</text></g><!--link P31 to KH--><g id="link_P31_KH"><path d="M564.5833,1883.0417 C564.5833,1828.75 564.5833,1751.2292 564.5833,1683.3333 C564.5833,860.4167 564.5833,860.4167 564.5833,860.4167 C564.5833,741.0208 684.0086,670.5641 782.2794,631.0016 " fill="none" id="P31-to-KH" style="stroke:#1E293B;stroke-width:2.0833333333333335;"/><polygon fill="#1E293B" points="793.875,626.3333,773.3695,625.6053,784.212,630.2235,779.5938,641.0661,793.875,626.3333" style="stroke:#1E293B;stroke-width:2.0833333333333335;"/><text fill="#0F172A" font-family="Segoe UI" font-size="20.8333" lengthAdjust="spacing" textLength="284.1593" x="566.6667" y="1268.3146">Danh s&#225;ch &amp; Chi ti&#7871;t s&#7843;n ph&#7849;m</text></g><!--link D3 to P31--><g id="link_D3_P31"><path d="M868.0417,1727.1042 C808.4583,1771.2917 725.917,1832.473 658.6879,1882.3064 " fill="none" id="D3-to-P31" style="stroke:#1E293B;stroke-width:2.0833333333333335;"/><polygon fill="#1E293B" points="648.6458,1889.75,668.6713,1885.2793,657.0142,1883.547,658.7465,1871.8899,648.6458,1889.75" style="stroke:#1E293B;stroke-width:2.0833333333333335;"/><text fill="#0F172A" font-family="Segoe UI" font-size="20.8333" lengthAdjust="spacing" textLength="421.8547" x="781.25" y="1814.1479">D&#7919; li&#7879;u th&#244;ng tin s&#7843;n ph&#7849;m, &#273;&#417;n gi&#225;, h&#236;nh &#7843;nh</text></g><!--link KH to P32--><g id="link_KH_P32"><path d="M919.4792,627.1875 C938.3333,658.375 969.6875,702.7708 1008.3333,729.1667 C1089.75,784.7917 1183.2868,814.796 1269.6826,833.6293 " fill="none" id="KH-to-P32" style="stroke:#1E293B;stroke-width:2.0833333333333335;"/><polygon fill="#1E293B" points="1281.8958,836.2917,1265.3509,824.156,1271.7182,834.0731,1261.8012,840.4403,1281.8958,836.2917" style="stroke:#1E293B;stroke-width:2.0833333333333335;"/><text fill="#0F172A" font-family="Segoe UI" font-size="20.8333" lengthAdjust="spacing" textLength="490.4378" x="1010.4167" y="722.4813">Ch&#7885;n bi&#7871;n th&#7875; (SKU, Size, M&#224;u), s&#7889; l&#432;&#7907;ng, &#273;&#7883;a ch&#7881; giao</text></g><!--link D2 to P32--><g id="link_D2_P32"><path d="M1572.125,635.4375 C1546.8958,678.2708 1514.4497,733.3345 1485.3455,782.7304 " fill="none" id="D2-to-P32" style="stroke:#1E293B;stroke-width:2.0833333333333335;"/><polygon fill="#1E293B" points="1479,793.5,1495.698,781.5759,1484.2879,784.5253,1481.3385,773.1152,1479,793.5" style="stroke:#1E293B;stroke-width:2.0833333333333335;"/><text fill="#0F172A" font-family="Segoe UI" font-size="20.8333" lengthAdjust="spacing" textLength="288.3809" x="1535.4167" y="722.4813">Th&#244;ng tin kh&#225;ch h&#224;ng &#273;&#7863;t h&#224;ng</text></g><!--link P32 to D41--><g id="link_P32_D41"><path d="M1575.6042,904.6042 C1656.0417,929.125 1759.5417,962.1875 1850,995.8333 C1861.2083,1000 1968.6334,1045.8523 2058.925,1084.4981 " fill="none" id="P32-to-D41" style="stroke:#1E293B;stroke-width:2.0833333333333335;"/><polygon fill="#1E293B" points="2070.4167,1089.4167,2056.4582,1074.3777,2060.8403,1085.3179,2049.9002,1089.6999,2070.4167,1089.4167" style="stroke:#1E293B;stroke-width:2.0833333333333335;"/><text fill="#0F172A" font-family="Segoe UI" font-size="20.8333" lengthAdjust="spacing" textLength="432.8613" x="1920.8333" y="1020.3979">Th&#234;m m&#7899;i &#273;&#417;n h&#224;ng (Tr&#7841;ng th&#225;i: Ch&#7901; x&#225;c nh&#7853;n)</text></g><!--link P32 to D42--><g id="link_P32_D42"><path d="M1349.8958,923.2292 C1323.7083,943.7292 1296.8542,968.5208 1277.0833,995.8333 C1256.7292,1023.9583 1246.7037,1048.9747 1238.5995,1077.5372 " fill="none" id="P32-to-D42" style="stroke:#1E293B;stroke-width:2.0833333333333335;"/><polygon fill="#1E293B" points="1235.1875,1089.5625,1248.3224,1073.7992,1238.0308,1079.5414,1232.2886,1069.2499,1235.1875,1089.5625" style="stroke:#1E293B;stroke-width:2.0833333333333335;"/><text fill="#0F172A" font-family="Segoe UI" font-size="20.8333" lengthAdjust="spacing" textLength="560.7808" x="1279.1667" y="1020.3979">Th&#234;m c&#225;c d&#242;ng CHITIETDONHANG (MaSL, SoLuong, DonGia)</text></g><!--link D42 to P33--><g id="link_D42_P33"><path d="M1176.4792,1181.2708 C1127.8333,1225.1458 1061.7394,1284.7725 1006.5727,1334.5434 " fill="none" id="D42-to-P33" style="stroke:#1E293B;stroke-width:2.0833333333333335;"/><polygon fill="#1E293B" points="997.2917,1342.9167,1016.7954,1336.5441,1005.0259,1335.9389,1005.6311,1324.1694,997.2917,1342.9167" style="stroke:#1E293B;stroke-width:2.0833333333333335;"/><text fill="#0F172A" font-family="Segoe UI" font-size="20.8333" lengthAdjust="spacing" textLength="299.998" x="1106.25" y="1268.3146">Danh s&#225;ch MaSL v&#224; SoLuong &#273;&#7863;t</text></g><!--link P33 to D3--><g id="link_P33_D3"><path d="M927.0833,1492.125 C927.0833,1540.9583 927.0833,1579.9375 927.0833,1622.125 " fill="none" id="P33-D3" style="stroke:#1E293B;stroke-width:2.0833333333333335;"/><polygon fill="#1E293B" points="927.0833,1479.625,918.75,1498.375,927.0833,1490.0417,935.4167,1498.375,927.0833,1479.625" style="stroke:#1E293B;stroke-width:2.0833333333333335;"/><polygon fill="#1E293B" points="927.0833,1634.625,935.4167,1615.875,927.0833,1624.2083,918.75,1615.875,927.0833,1634.625" style="stroke:#1E293B;stroke-width:2.0833333333333335;"/><text fill="#0F172A" font-family="Segoe UI" font-size="20.8333" lengthAdjust="spacing" textLength="437.1745" x="929.1667" y="1566.2313">Ki&#7875;m tra SoLuongTon &amp; Tr&#7915; t&#7891;n kho t&#432;&#417;ng &#7913;ng</text></g><!--link P33 to KH--><g id="link_P33_KH"><path d="M924.7917,1337.125 C919.25,1170.6042 905.7489,764.3264 901.603,639.6806 " fill="none" id="P33-to-KH" style="stroke:#1E293B;stroke-width:2.0833333333333335;"/><polygon fill="#1E293B" points="901.1875,627.1875,893.4821,646.2042,901.5338,637.5984,910.1395,645.6501,901.1875,627.1875" style="stroke:#1E293B;stroke-width:2.0833333333333335;"/><text fill="#0F172A" font-family="Segoe UI" font-size="20.8333" lengthAdjust="spacing" textLength="297.8516" x="916.6667" y="1020.3979">Th&#244;ng b&#225;o &#273;&#7863;t h&#224;ng th&#224;nh c&#244;ng</text></g><!--link QL to P34--><g id="link_QL_P34"><path d="M1658.3333,89.8333 C1658.3333,129.8125 1658.3333,183.0833 1658.3333,233.1875 " fill="none" id="QL-to-P34" style="stroke:#1E293B;stroke-width:2.0833333333333335;"/><polygon fill="#1E293B" points="1658.3333,245.6875,1666.6667,226.9375,1658.3333,235.2708,1650,226.9375,1658.3333,245.6875" style="stroke:#1E293B;stroke-width:2.0833333333333335;"/><text fill="#0F172A" font-family="Segoe UI" font-size="20.8333" lengthAdjust="spacing" textLength="536.7839" x="1660.4167" y="176.6479">Duy&#7879;t &#273;&#417;n / C&#7853;p nh&#7853;t: '&#272;&#227; x&#225;c nh&#7853;n', '&#272;ang giao', '&#272;&#227; giao'</text></g><!--link P34 to D41--><g id="link_P34_D41"><path d="M1756.6875,375.1667 C1920.3333,475.4583 2242.9583,702.1667 2368.75,995.8333 C2389.7708,1044.8958 2351.9334,1074.6454 2297.475,1096.7912 " fill="none" id="P34-to-D41" style="stroke:#1E293B;stroke-width:2.0833333333333335;"/><polygon fill="#1E293B" points="2285.8958,1101.5,2306.4038,1102.1563,2295.5452,1097.576,2300.1255,1086.7174,2285.8958,1101.5" style="stroke:#1E293B;stroke-width:2.0833333333333335;"/><text fill="#0F172A" font-family="Segoe UI" font-size="20.8333" lengthAdjust="spacing" textLength="288.5742" x="2189.5833" y="722.4813">C&#7853;p nh&#7853;t TrangThai, MaQLXuLy</text></g><!--link P34 to KH--><g id="link_P34_KH"><path d="M1528.8333,364.6458 C1379.2917,417.6458 1148.2609,499.5112 1012.2609,547.7195 " fill="none" id="P34-to-KH" style="stroke:#1E293B;stroke-width:2.0833333333333335;"/><polygon fill="#1E293B" points="1000.4792,551.8958,1020.9359,553.4859,1010.2973,548.4156,1015.3675,537.7769,1000.4792,551.8958" style="stroke:#1E293B;stroke-width:2.0833333333333335;"/><text fill="#0F172A" font-family="Segoe UI" font-size="20.8333" lengthAdjust="spacing" textLength="398.7122" x="1281.25" y="474.5646">Th&#244;ng b&#225;o tr&#7841;ng th&#225;i v&#7853;n chuy&#7875;n &#273;&#417;n h&#224;ng</text></g><!--SRC=[hLHBQ-DM5DxVNt5m8G_mf9RaJ1DJ2XefZe9b9q4opCAR6rcrXAqheyVCf6LWoYo6KafdwBA49Wspc7Q63csXO2swKCZ_q3_fkPPiNpVqiQXszpo-yvtldADuxBCfZMW0G_TJcawITiYI7WrSg5dkA7IXVrGZyJ8ezkWmVEop4IHHwWgEANN6TEHQoVd4XSXr4if64p5WEFL1RZI8O5g6mUS4y7k06ACeJDbG2oTX11-qzzfgMojzOJHqeygkA4rfTrUmsvxlZ9aRno3jb7RUXkL_ve8ahzvpScVXP4YUYZpIs7Le_FSi3jgDFVKk2qtTKnlD_yX2-bSMGvhGit-WSQ2rzVRkNHgDtVtxz_V_DneqYiB75OUgWdGWxoiFbfcBkctf8rdz2tw3WwtcMkiO-HUQ0KR-h7TO0nf3nn3Tf_rYzaCFpFm2FWHLxnxrva6d9Y6BeTIK7Md0x8Y2KsHlKjY0Xsu0ZkT3uXUpFv81iuhPDOEfLypU161xHNQ1lWWhpB5E54d4aWUiWo7VOqWnkmhXvkNj5GCllsIZ0Ti0ROaB8x_8lYaz5P0i0Ya8X17F0ruBx2Bxbi7O2pa85fYzJj5UP3z1N6IlO7BxliYkbq2A2DGSC3qzBx8NYKW6DWPCAsRlfi0GxLq2XpuDrzWq2LckJ4sNMoYjgXc6MWcjow9RQO6bzauCjLi7NUqPtRw6Ibh7Pl-uTsYTb1cAcD7SaLgW7_TMW4rftOybDUF8FZgmryDaGZO1fqOw1joxzmcV0BJ0pjy6CERIec9ScB6N_qfnx1gEusk6wyyy28hijOCs4qqE1FbbMeSO5uleYW2b5zdFC47nNw38NluR_nlv39LUxK4TRbvnBKT-VbL7sTuYE7TxX4DmA2I7IBned5yv7gpDNeGgkv5NtSYOM94-u-4CIU0Ym9RLwTU1tq4TkaXzkxu-VCwfoBx2HSRmBv4Q3Oak2w3sgXSKXvCgLm7JPhydvOFmK9w2uoXJVWouRD_vLSTbofOTuNfpC0JoIxuNy0H1otrYsmAGl0HoUC0m_mKJrqSBMrrgcTXTQAOXRqKF6MxaTYcEGZX8sOYoBYjFWqVvvIApQeRmm8_dvNc2S4bLd1qo78azFw5aSLoGtBw_vLtXds0kXR8QPINUMSwFMX2CAt29T1pkBkasoQbPiMrojelhc-k72ocSNGisRrxcrw9octLkmz_BV8Bb2oFc3y8HLzDPEs2R_v9iZ_gu7VJKV9YQvylmEnqaulZW4Q-BQyE9FcVYeCcV]--></g></svg>